<svg xmlns="http://www.w3.org/2000/svg" xmlns:xlink="http://www.w3.org/1999/xlink" viewBox="0 0 267.85 182.76"><defs><style>.cls-1,.cls-12{fill:#fff;}.cls-1,.cls-11,.cls-12,.cls-13,.cls-3,.cls-4,.cls-5,.cls-6{stroke:#fff;}.cls-1,.cls-10,.cls-11,.cls-12,.cls-13,.cls-14,.cls-2,.cls-3,.cls-4,.cls-5,.cls-6,.cls-7,.cls-8,.cls-9{stroke-miterlimit:10;}.cls-1,.cls-3,.cls-4{stroke-width:3px;}.cls-10,.cls-12,.cls-13,.cls-2,.cls-7,.cls-8,.cls-9{stroke-width:2px;}.cls-2{fill:url(#linear-gradient);stroke:url(#linear-gradient-2);}.cls-3{fill:url(#linear-gradient-3);}.cls-4{fill:url(#linear-gradient-4);}.cls-11,.cls-13,.cls-5,.cls-6{fill:none;}.cls-5{stroke-width:1.91px;}.cls-6{stroke-width:0.96px;}.cls-7{fill:url(#linear-gradient-5);stroke:url(#linear-gradient-6);}.cls-8{fill:url(#linear-gradient-7);stroke:url(#linear-gradient-8);}.cls-9{fill:url(#linear-gradient-9);stroke:url(#linear-gradient-10);}.cls-10{fill:url(#linear-gradient-11);stroke:url(#linear-gradient-12);}.cls-11{stroke-width:2.4px;}.cls-14{fill:url(#linear-gradient-13);stroke:url(#linear-gradient-14);}</style><linearGradient id="linear-gradient" x1="182.27" y1="91.38" x2="257.11" y2="91.38" gradientUnits="userSpaceOnUse"><stop offset="0.18" stop-color="#2a4a9b"/><stop offset="0.5" stop-color="#272e66"/><stop offset="0.88"/></linearGradient><linearGradient id="linear-gradient-2" x1="181.27" y1="91.38" x2="259.45" y2="91.38" gradientUnits="userSpaceOnUse"><stop offset="0.08" stop-color="#2a4a9b"/><stop offset="0.47" stop-color="#272e66"/><stop offset="0.88"/></linearGradient><linearGradient id="linear-gradient-3" x1="29.45" y1="10.96" x2="71.37" y2="10.96" gradientUnits="userSpaceOnUse"><stop offset="0.12"/><stop offset="0.53" stop-color="#272e66"/><stop offset="0.92" stop-color="#2a4a9b"/></linearGradient><linearGradient id="linear-gradient-4" x1="196.49" y1="10.96" x2="238.4" y2="10.96" xlink:href="#linear-gradient-2"/><linearGradient id="linear-gradient-5" x1="76.27" y1="93.3" x2="112.04" y2="93.3" xlink:href="#linear-gradient-2"/><linearGradient id="linear-gradient-6" x1="75.27" y1="93.3" x2="113.04" y2="93.3" xlink:href="#linear-gradient-2"/><linearGradient id="linear-gradient-7" x1="10.48" y1="93.3" x2="86.66" y2="93.3" xlink:href="#linear-gradient-3"/><linearGradient id="linear-gradient-8" x1="9.48" y1="93.3" x2="87.66" y2="93.3" xlink:href="#linear-gradient-3"/><linearGradient id="linear-gradient-9" x1="158.05" y1="93.3" x2="193.82" y2="93.3" xlink:href="#linear-gradient-3"/><linearGradient id="linear-gradient-10" x1="157.05" y1="93.3" x2="194.82" y2="93.3" xlink:href="#linear-gradient-3"/><linearGradient id="linear-gradient-11" x1="85.03" y1="35.52" x2="182.82" y2="35.52" xlink:href="#linear-gradient-3"/><linearGradient id="linear-gradient-12" x1="84.03" y1="35.52" x2="183.82" y2="35.52" xlink:href="#linear-gradient-3"/><linearGradient id="linear-gradient-13" x1="120.95" y1="108.2" x2="146.43" y2="108.2" xlink:href="#linear-gradient-2"/><linearGradient id="linear-gradient-14" x1="120.45" y1="108.2" x2="146.93" y2="108.2" xlink:href="#linear-gradient-2"/></defs><g id="Layer_2" data-name="Layer 2"><g id="Layer_1-2" data-name="Layer 1"><path class="cls-1" d="M258.67,164.72c-2.14,8.26-30.88,30.57-37.3,3.67s-31.49-55.95-33.63-50.14-53.81,3.06-53.81,3.06-51.67,2.75-53.81-3.06-27.21,23.24-33.63,50.14S11.33,173,9.19,164.72-16.18,93,30.29,20.42c0,0,10.48-7.47,41.08-10.74,0,0,45.55-6,62.56-4.25,17-1.72,62.56,4.25,62.56,4.25,27.28,3,41.08,10.74,41.08,10.74C284,93,260.81,156.47,258.67,164.72Z"/><path class="cls-2" d="M196.71,15.9A7,7,0,0,0,191,20.06c-3.87,9-12.84,32.58-6.62,44.6C191.82,79,203,83,235.19,163a6.93,6.93,0,0,0,12.7.4c9.67-20.46,21.73-65.55-9.82-133.58C238.07,29.8,229.58,12.34,196.71,15.9Z"/><path class="cls-3" d="M71.37,9.68C40.77,13,30.29,20.42,30.29,20.42S23.56,5,48.32,2.22,69.76,5.21,71.37,9.68Z"/><path class="cls-4" d="M237.57,20.42s-13.8-7.76-41.08-10.74c1.61-4.47-1.72-10.21,23-7.46S237.57,20.42,237.57,20.42Z"/><circle class="cls-5" cx="231.87" cy="53.94" r="7.3"/><circle class="cls-6" cx="231.87" cy="53.94" r="2.86"/><circle class="cls-5" cx="216.77" cy="39.86" r="7.3"/><polygon class="cls-6" points="220.01 42.7 213.52 42.61 216.84 37.02 220.01 42.7"/><circle class="cls-5" cx="203.02" cy="53.94" r="7.3"/><rect class="cls-6" x="200.39" y="51.31" width="5.26" height="5.26"/><circle class="cls-5" cx="216.77" cy="67.59" r="7.3"/><line class="cls-6" x1="213.81" y1="64.42" x2="219.72" y2="70.76"/><line class="cls-6" x1="219.72" y1="64.42" x2="213.81" y2="70.76"/><circle class="cls-7" cx="94.15" cy="93.3" r="17.89"/><path class="cls-8" d="M72.22,17.82A7,7,0,0,1,77.9,22c3.87,9,12.85,32.58,6.62,44.6C77.11,80.89,66,84.91,33.75,164.9a6.94,6.94,0,0,1-12.71.4C11.37,144.84-.69,99.75,30.87,31.72,30.87,31.72,39.35,14.26,72.22,17.82Z"/><circle class="cls-9" cx="175.94" cy="93.3" r="17.89"/><path class="cls-10" d="M176.55,13.3C161,9.93,133.93,11,133.93,11s-27-1-42.63,2.34A8,8,0,0,0,85.08,22c1,8.52,3.37,23.46,9.29,33.44a8,8,0,0,0,6.37,4c8.25.58,27.39,1.65,33.19-.29,5.79,1.94,24.93.87,33.18.29a8,8,0,0,0,6.37-4c5.92-10,8.35-24.92,9.29-33.44A8,8,0,0,0,176.55,13.3Z"/><path class="cls-11" d="M51.28,70.83h9a1,1,0,0,0,.95-1L61,63.44a2.93,2.93,0,0,0-.87-2l-3-3a2.33,2.33,0,0,0-3.42.15L50.88,62a3.43,3.43,0,0,0-.81,2.28l.11,5.47A1.1,1.1,0,0,0,51.28,70.83Z"/><path class="cls-11" d="M72.06,58.1v-9a1,1,0,0,0-1-1l-6.39.27a2.93,2.93,0,0,0-2,.87l-3,3a2.33,2.33,0,0,0,.15,3.42l3.36,2.82a3.46,3.46,0,0,0,2.28.81L71,59.2A1.1,1.1,0,0,0,72.06,58.1Z"/><path class="cls-11" d="M58.52,36.93h-9a1,1,0,0,0-1,1l.27,6.39a2.93,2.93,0,0,0,.87,2l3,3a2.33,2.33,0,0,0,3.42-.15l2.82-3.36a3.46,3.46,0,0,0,.81-2.28L59.62,38A1.1,1.1,0,0,0,58.52,36.93Z"/><path class="cls-11" d="M37.75,50.41v9a1,1,0,0,0,1,1l6.38-.27a3,3,0,0,0,2-.87l3-3a2.31,2.31,0,0,0-.15-3.42L46.58,50a3.46,3.46,0,0,0-2.28-.81l-5.48.11A1.09,1.09,0,0,0,37.75,50.41Z"/><path class="cls-12" d="M95.63,32.25V25.51a.71.71,0,0,1,.22-.52.72.72,0,0,1,.5-.2,9,9,0,0,1,6.32,2.42A7.6,7.6,0,0,1,105.23,33a.69.69,0,0,1-.72.72l-7.44,0v7.42H95.63V32.25Zm8.16,0a4.94,4.94,0,0,0-1-2.83,7.43,7.43,0,0,0-2.53-2.28,6.51,6.51,0,0,0-3.23-.89v6Z"/><path class="cls-12" d="M109.34,41.11H107.9v-17h1.44v17Z"/><path class="cls-12" d="M113.56,30.07V28.63h.72a6.82,6.82,0,0,1,3.9,1,2.89,2.89,0,0,1,1.5,2.44v8.28a.69.69,0,0,1-.72.72h-6.24a.72.72,0,0,1-.5-.2.67.67,0,0,1-.22-.52,5.7,5.7,0,0,1,1.75-4.07,6.9,6.9,0,0,1,4.49-2.12V32.11c0-.62-.38-1.12-1.2-1.49a6.64,6.64,0,0,0-2.76-.55Zm1.27,7.09a3.45,3.45,0,0,0-1.39,2.51h4.8v-4A6.07,6.07,0,0,0,114.83,37.16Z"/><path class="cls-12" d="M123.34,28.63h1.44v.72a21.07,21.07,0,0,0,.52,4.91A10.59,10.59,0,0,0,127,38.12a3.19,3.19,0,0,0,2.6,1.55h0v-11H131V40.37a5.27,5.27,0,0,1-.16,1.46,5.59,5.59,0,0,1-.69,1.54,5.52,5.52,0,0,1-1.26,1.39,6.28,6.28,0,0,1-2,1,9.24,9.24,0,0,1-2.84.4h-.72V44.71h.72a8,8,0,0,0,2.33-.32,4.62,4.62,0,0,0,1.67-.88,5,5,0,0,0,1-1.16,3.88,3.88,0,0,0,.48-1.29,5.4,5.4,0,0,1-3.33-1.94,11,11,0,0,1-2.15-4.2,20.41,20.41,0,0,1-.72-5.57Z"/><path class="cls-12" d="M142.57,24.79h.72v1.44h-4.08V41.11h-1.44V26.23h-4.08V24.79h8.88Z"/><path class="cls-12" d="M152.63,39.67v1.44h-.72l-6.21,0a.72.72,0,0,1-.51-.2.7.7,0,0,1-.21-.52l0-4.82V34.15H145a5.74,5.74,0,0,1,2.17-4,7.28,7.28,0,0,1,4.74-1.55.69.69,0,0,1,.72.72v5.52a.69.69,0,0,1-.72.72h-5.52v4.08h6.24Zm-1.44-5.52V30.07a4.54,4.54,0,0,0-1.61.3,5.45,5.45,0,0,0-1.44.83,4.76,4.76,0,0,0-1.1,1.29,4.94,4.94,0,0,0-.6,1.66Z"/><path class="cls-12" d="M163,39.67v1.44h-.72l-6.22,0a.72.72,0,0,1-.72-.72l0-5.54a5.77,5.77,0,0,1,1.95-4.46,7.14,7.14,0,0,1,5-1.78H163v1.44h-.72a5.89,5.89,0,0,0-3.95,1.34,4.34,4.34,0,0,0-1.57,3.46v4.8H163Z"/><path class="cls-12" d="M173.34,41.13h-1.41l0-.72,0-5.54a4.28,4.28,0,0,0-1.38-3.17,5.74,5.74,0,0,0-3.42-1.58v11h-1.44v-17h1.44v4.61a6.9,6.9,0,0,1,4.46,2,5.7,5.7,0,0,1,1.78,4.16v5.52Z"/><circle class="cls-13" cx="175.94" cy="93.3" r="7.34"/><circle class="cls-13" cx="94.15" cy="93.3" r="7.34"/><rect class="cls-14" x="120.95" y="105.22" width="25.47" height="5.96" rx="2.98"/></g></g></svg>