<svg xmlns="http://www.w3.org/2000/svg" xmlns:xlink="http://www.w3.org/1999/xlink" viewBox="0 0 184.36 128.87"><defs><style>.cls-1{fill:#dadada;}.cls-2{fill:url(#linear-gradient);}.cls-3{fill:url(#linear-gradient-2);}</style><linearGradient id="linear-gradient" x1="75.4" y1="119.43" x2="75.4" y2="7.16" gradientUnits="userSpaceOnUse"><stop offset="0" stop-color="#8b253e"/><stop offset="1" stop-color="#3b6186"/></linearGradient><linearGradient id="linear-gradient-2" x1="69.39" y1="65.03" x2="172.28" y2="65.03" gradientUnits="userSpaceOnUse"><stop offset="0" stop-color="#3b6186"/><stop offset="1" stop-color="#8b253e"/></linearGradient></defs><g id="Layer_2" data-name="Layer 2"><g id="Layer_1-2" data-name="Layer 1"><path class="cls-1" d="M66,0h96.23a22.17,22.17,0,0,1,22.17,22.17v0a106.7,106.7,0,0,1-106.7,106.7H62.9A62.9,62.9,0,0,1,0,66v0A66,66,0,0,1,66,0Z"/><path class="cls-2" d="M40.77,114.25a56.92,56.92,0,0,0,11.87,5.18,57,57,0,0,0,11.88-5.18A57.64,57.64,0,0,0,81.34,99.49,57.08,57.08,0,0,0,93.21,64.54,57.4,57.4,0,0,1,138.72,8.39a57.25,57.25,0,0,0-40.57,6.45A56.65,56.65,0,0,0,81.34,8.39,57.4,57.4,0,0,0,40.77,114.25ZM52.64,24a57.13,57.13,0,0,1,11.88-9.12A57.46,57.46,0,0,1,81.34,29.59a57.11,57.11,0,0,0-11.88,35,57.17,57.17,0,0,1-16.82,40.58,57.36,57.36,0,0,1,0-81.16Z"/><path class="cls-3" d="M69.39,119.43a56.92,56.92,0,0,0,11.87-5.18A57.44,57.44,0,0,0,110,64.54,57.4,57.4,0,0,1,155.46,8.39c7.32-.39,16.82,2.08,16.82,2.08a56.92,56.92,0,0,0-11.87,5.18,57.43,57.43,0,0,0-28.7,49.7A57.4,57.4,0,0,1,86.2,121.51,37.85,37.85,0,0,1,69.39,119.43Z"/></g></g></svg>